<svg xmlns="http://www.w3.org/2000/svg" xmlns:xlink="http://www.w3.org/1999/xlink" width="131.211" height="127.882" viewBox="0 0 131.211 127.882">
  <defs>
    <clipPath id="clip-path">
      <rect id="Rectángulo_455703" data-name="Rectángulo 455703" width="17.259" height="17.259" transform="translate(0 0)" fill="none"/>
    </clipPath>
    <clipPath id="clip-path-2">
      <rect id="Rectángulo_455704" data-name="Rectángulo 455704" width="24.318" height="28.028" transform="translate(0 0)" fill="none"/>
    </clipPath>
    <clipPath id="clip-path-3">
      <rect id="Rectángulo_456325" data-name="Rectángulo 456325" width="57.592" height="71.729" fill="none"/>
    </clipPath>
  </defs>
  <g id="Grupo_1206566" data-name="Grupo 1206566" transform="translate(4832.712 9584.682)">
    <g id="Grupo_1206521" data-name="Grupo 1206521" transform="translate(0 63)">
      <circle id="Elipse_13759" data-name="Elipse 13759" cx="62" cy="62" r="62" transform="translate(-4832.712 -9647.682)" fill="#ffeaed"/>
      <g id="Grupo_1206306" data-name="Grupo 1206306" transform="translate(-4778.712 -9537.059)">
        <g id="Grupo_1204987" data-name="Grupo 1204987" clip-path="url(#clip-path)">
          <path id="Trazado_1263387" data-name="Trazado 1263387" d="M.2,6.793A8.628,8.628,0,1,1,6.793,17.059,8.627,8.627,0,0,1,.2,6.793" fill="#153785"/>
        </g>
      </g>
      <g id="Grupo_1206307" data-name="Grupo 1206307" transform="matrix(0.875, -0.485, 0.485, 0.875, -4736.358, -9551.805)">
        <path id="Trazado_1263388" data-name="Trazado 1263388" d="M21.318,14.087l-9.9,5.674-9.9,5.673.04-11.415L1.591,2.6l9.863,5.74Z" fill="#fef0de"/>
        <g id="Grupo_1204990" data-name="Grupo 1204990">
          <g id="Grupo_1204989" data-name="Grupo 1204989" clip-path="url(#clip-path-2)">
            <path id="Trazado_1263389" data-name="Trazado 1263389" d="M21.318,14.087l-9.9,5.674-9.9,5.673.04-11.415L1.591,2.6l9.863,5.74Z" fill="none" stroke="#fd94a5" stroke-linecap="round" stroke-miterlimit="10.004" stroke-width="3.001"/>
          </g>
        </g>
      </g>
      <g id="Grupo_1206343" data-name="Grupo 1206343" transform="translate(-4800.71 -9626.305)">
        <g id="Grupo_1206342" data-name="Grupo 1206342" clip-path="url(#clip-path-3)">
          <path id="Trazado_1264934" data-name="Trazado 1264934" d="M103.587,118.989H127.55V105.916s-1.881-5.941-7.09-5.941H109.794s-7.242,2.257-6.5,7.107a68.86,68.86,0,0,1,.292,11.907" transform="translate(-86.785 -84.039)" fill="#55b9ff"/>
          <path id="Trazado_1264935" data-name="Trazado 1264935" d="M154.7,11.387a4.9,4.9,0,1,1-4.922,4.922,4.909,4.909,0,0,1,4.922-4.922" transform="translate(-125.906 -9.572)" fill="#fde1be"/>
          <path id="Trazado_1264936" data-name="Trazado 1264936" d="M212.389,158.855v17.836a7.385,7.385,0,0,1-2.129,5.271l-1.606,1.64a.975.975,0,0,0-.175,1.012l-1.4.942a.938.938,0,0,0-.628.279l-2.2,2.234a.927.927,0,0,0-.175.977l-1.326,1.012a.825.825,0,0,0-.663.279l-1.606,1.606-.628.628a4.8,4.8,0,0,0-1.745,3.665v4.922H186.35V188.593a7.337,7.337,0,0,1,2.164-5.236l10.576-10.576a2.572,2.572,0,0,1,3.665.07,2.346,2.346,0,0,1,.733,1.745,2.4,2.4,0,0,1-.524,1.431,6.074,6.074,0,0,1-.419.489l-3.281,3.281-2.583,2.583a.913.913,0,0,0,1.291,1.291l6.073-6.073c.1-.07.14-.209.209-.279a9.847,9.847,0,0,0,2.513-6.387l.139-12.112a2.74,2.74,0,0,1,5.48.035" transform="translate(-156.646 -131.245)" fill="#fde1be"/>
          <path id="Trazado_1264937" data-name="Trazado 1264937" d="M37.426,188.592v12.566H25.663v-4.922a4.684,4.684,0,0,0-1.745-3.665l-10.4-10.611a7.534,7.534,0,0,1-2.129-5.27V158.854a2.74,2.74,0,0,1,5.48-.035l.175,12.112a9.832,9.832,0,0,0,2.234,6.143,3.261,3.261,0,0,0,.454.524l6.073,6.073a.913.913,0,0,0,1.292-1.291L24.511,179.8l-3.281-3.281a3.727,3.727,0,0,1-.489-.559,2.359,2.359,0,0,1-.454-1.361,2.551,2.551,0,0,1,.8-1.815,2.5,2.5,0,0,1,1.815-.733,2.423,2.423,0,0,1,1.78.733l10.576,10.576a7.337,7.337,0,0,1,2.164,5.236" transform="translate(-9.572 -131.244)" fill="#fde1be"/>
          <path id="Trazado_1264938" data-name="Trazado 1264938" d="M57.593,149.1v17.836a9.21,9.21,0,0,1-2.688,6.562L53.3,175.136a.874.874,0,0,1-.628.279.954.954,0,0,1-.663-.279.619.619,0,0,1-.175-.279.975.975,0,0,1,.175-1.012l1.606-1.641a7.385,7.385,0,0,0,2.129-5.271V149.1a2.74,2.74,0,0,0-5.48-.035l-.14,12.112a9.848,9.848,0,0,1-2.513,6.388c-.07.07-.1.209-.209.279l-6.073,6.073a.913.913,0,0,1-1.292-1.291l2.583-2.583,3.281-3.281a6.075,6.075,0,0,0,.419-.489,2.4,2.4,0,0,0,.524-1.431,2.346,2.346,0,0,0-.733-1.745,2.572,2.572,0,0,0-3.665-.07L31.868,173.6a7.337,7.337,0,0,0-2.164,5.236V191.4H41.467V186.48a4.8,4.8,0,0,1,1.745-3.665l.628-.628,1.606-1.606a.825.825,0,0,1,.663-.279.9.9,0,0,1,.628.244.927.927,0,0,1,0,1.291l-1.606,1.641-.628.663a2.924,2.924,0,0,0-1.187,2.339v5.829a.9.9,0,0,1-.907.908H15.184a.909.909,0,0,1-.942-.908V186.48a2.9,2.9,0,0,0-1.082-2.269c-.07-.07-10.506-10.716-10.506-10.716A9.325,9.325,0,0,1,0,166.934V149.1a4.573,4.573,0,0,1,9.145-.07l.14,12.112a8.018,8.018,0,0,0,.175,1.571,4.2,4.2,0,0,1,.7-.907,4.391,4.391,0,0,1,3.176-1.361,4.248,4.248,0,0,1,3.072,1.291l10.611,10.576a10.03,10.03,0,0,1,1.78,2.583,8.564,8.564,0,0,1,1.78-2.583l10.576-10.576a4.306,4.306,0,0,1,3.071-1.291,3.952,3.952,0,0,1,3.84,2.373,6.884,6.884,0,0,0,.209-1.675l.14-12.112a4.59,4.59,0,0,1,9.18.07M27.855,191.4V178.836A7.337,7.337,0,0,0,25.69,173.6L15.115,163.024a2.423,2.423,0,0,0-1.78-.733,2.5,2.5,0,0,0-1.815.733,2.551,2.551,0,0,0-.8,1.815,2.359,2.359,0,0,0,.454,1.361,3.725,3.725,0,0,0,.489.559l3.281,3.281,2.583,2.583a.913.913,0,0,1-1.292,1.291l-6.073-6.073a3.259,3.259,0,0,1-.454-.524,9.832,9.832,0,0,1-2.234-6.143L7.3,149.063a2.74,2.74,0,0,0-5.48.035v17.836A7.534,7.534,0,0,0,3.945,172.2l10.4,10.611a4.684,4.684,0,0,1,1.745,3.665V191.4Z" transform="translate(-0.001 -121.488)"/>
          <path id="Trazado_1264939" data-name="Trazado 1264939" d="M300.881,341.009a.9.9,0,0,1,.035,1.291l-2.2,2.234a.954.954,0,0,1-.663.279.9.9,0,0,1-.628-.244,3.068,3.068,0,0,1-.209-.349.927.927,0,0,1,.175-.977l2.2-2.234a.938.938,0,0,1,.628-.279.954.954,0,0,1,.663.279" transform="translate(-249.781 -286.419)"/>
          <path id="Trazado_1264940" data-name="Trazado 1264940" d="M125.429,101.982v10.785a.9.9,0,0,1-.907.908.88.88,0,0,1-.908-.908V101.982a6.347,6.347,0,0,0-5.62-6.318c-1.257-.14-3.072-.175-5.445-.175a46.651,46.651,0,0,0-5.48.175,6.345,6.345,0,0,0-5.585,6.318v10.785a.925.925,0,0,1-1.85,0V101.982a8.189,8.189,0,0,1,7.225-8.133,50.68,50.68,0,0,1,5.689-.175,50,50,0,0,1,5.655.175,8.189,8.189,0,0,1,7.225,8.133" transform="translate(-83.754 -78.736)"/>
          <path id="Trazado_1264941" data-name="Trazado 1264941" d="M212.91,168.023v6.457a.88.88,0,0,1-.907.907.9.9,0,0,1-.908-.907v-6.457a.932.932,0,0,1,.908-.942.909.909,0,0,1,.907.942" transform="translate(-177.447 -140.449)"/>
          <path id="Trazado_1264942" data-name="Trazado 1264942" d="M145.131,0a6.719,6.719,0,1,1-6.737,6.737A6.711,6.711,0,0,1,145.131,0m4.887,6.737a4.9,4.9,0,1,0-4.887,4.887,4.909,4.909,0,0,0,4.887-4.887" transform="translate(-116.334)"/>
          <path id="Trazado_1264943" data-name="Trazado 1264943" d="M140.428,168.023v6.457a.88.88,0,0,1-.908.907.9.9,0,0,1-.907-.907v-6.457a.932.932,0,0,1,.907-.942.909.909,0,0,1,.908.942" transform="translate(-116.519 -140.449)"/>
        </g>
      </g>
    </g>
  </g>
</svg>
