<svg xmlns="http://www.w3.org/2000/svg" xmlns:xlink="http://www.w3.org/1999/xlink" width="107" height="107" viewBox="0 0 107 107">
  <defs>
    <clipPath id="clip-path">
      <rect id="Rectángulo_455925" data-name="Rectángulo 455925" width="72.506" height="72.421" fill="#fff"/>
    </clipPath>
  </defs>
  <g id="Grupo_1206555" data-name="Grupo 1206555" transform="translate(-279.401 -3012.844)">
    <g id="Grupo_1206159" data-name="Grupo 1206159" transform="translate(0 -75)">
      <g id="Grupo_156312" data-name="Grupo 156312" transform="translate(-9.267 -1360.593)">
        <path id="Elipse_5845" data-name="Elipse 5845" d="M53.5,0A53.5,53.5,0,1,1,0,53.5,53.5,53.5,0,0,1,53.5,0Z" transform="translate(288.668 4448.437)" fill="#45248e"/>
      </g>
      <g id="Grupo_1205608" data-name="Grupo 1205608" transform="translate(296.96 3102.423)">
        <rect id="Rectángulo_455920" data-name="Rectángulo 455920" width="2.263" height="2.263" transform="translate(17.044 4.526)" fill="#fff"/>
        <rect id="Rectángulo_455921" data-name="Rectángulo 455921" width="2.263" height="2.263" transform="translate(53.255 23.763)" fill="#fff"/>
        <rect id="Rectángulo_455922" data-name="Rectángulo 455922" width="2.263" height="2.263" transform="translate(60.044 4.526)" fill="#fff"/>
        <rect id="Rectángulo_455923" data-name="Rectángulo 455923" width="2.263" height="2.263" transform="translate(0.071 26.833)" fill="#fff"/>
        <rect id="Rectángulo_455924" data-name="Rectángulo 455924" width="2.263" height="2.263" transform="translate(32.886 65.632)" fill="#fff"/>
        <g id="Grupo_1205605" data-name="Grupo 1205605">
          <g id="Grupo_1205604" data-name="Grupo 1205604" clip-path="url(#clip-path)">
            <path id="Trazado_1263666" data-name="Trazado 1263666" d="M156.461,408a3.961,3.961,0,1,0,3.961,3.961A3.972,3.972,0,0,0,156.461,408m0,5.658a1.7,1.7,0,1,1,1.7-1.7,1.7,1.7,0,0,1-1.7,1.7" transform="translate(-130.929 -350.29)" fill="#fff"/>
            <path id="Trazado_1263667" data-name="Trazado 1263667" d="M28.461,23.921A3.961,3.961,0,1,0,24.5,19.961a3.972,3.972,0,0,0,3.961,3.961m0-5.658a1.7,1.7,0,1,1-1.7,1.7,1.7,1.7,0,0,1,1.7-1.7" transform="translate(-21.035 -13.737)" fill="#fff"/>
            <path id="Trazado_1263668" data-name="Trazado 1263668" d="M217.094,7.78l3.366,1.839,1.839,3.366a1.122,1.122,0,0,0,1.98,0l1.839-3.366,3.366-1.839a1.122,1.122,0,0,0,0-1.98l-3.366-1.839L224.28.594a1.122,1.122,0,0,0-1.98,0l-1.839,3.366L217.094,5.8a1.122,1.122,0,0,0,0,1.98m4.738-1.994a1.16,1.16,0,0,0,.453-.453l1-1.839,1,1.839a1.16,1.16,0,0,0,.453.453l1.839,1-1.839,1a1.16,1.16,0,0,0-.453.453l-1,1.839-1-1.839a1.16,1.16,0,0,0-.453-.453l-1.839-1Z" transform="translate(-185.877 0)" fill="#fff"/>
            <path id="Trazado_1263669" data-name="Trazado 1263669" d="M309.485,421.8l-3.366-1.839-1.839-3.366a1.122,1.122,0,0,0-1.98,0l-1.839,3.366-3.366,1.839a1.122,1.122,0,0,0,0,1.98l3.366,1.839,1.839,3.366a1.122,1.122,0,0,0,1.98,0l1.839-3.366,3.366-1.839a1.122,1.122,0,0,0,0-1.98m-4.738,1.994a1.16,1.16,0,0,0-.453.453l-1,1.839-1-1.839a1.16,1.16,0,0,0-.453-.453l-1.839-1,1.839-1a1.161,1.161,0,0,0,.453-.453l1-1.839,1,1.839a1.16,1.16,0,0,0,.453.453l1.839,1Z" transform="translate(-254.561 -357.158)" fill="#fff"/>
            <path id="Trazado_1263670" data-name="Trazado 1263670" d="M72.364,101.136l-7.794-15.6V73.356a1.12,1.12,0,0,0-.467-.919,1.14,1.14,0,0,0-1.018-.156l-1.91.637V71.093a1.127,1.127,0,0,0-.962-1.117,31.671,31.671,0,0,0-9.392,0,32.066,32.066,0,0,0-13.48,5.432,43.171,43.171,0,0,0-10.99-4.286,59.823,59.823,0,0,0-13.876-1.16,1.136,1.136,0,0,0-1.089,1.132v1.825l-1.91-.637a1.14,1.14,0,0,0-1.018.156,1.12,1.12,0,0,0-.467.919V85.534l-7.864,15.6a1.046,1.046,0,0,0-.127.509V132.2H2.263V102.183L15.672,91.121a7.849,7.849,0,0,1-1.414,6.365l-5.983,5.6a1.123,1.123,0,0,0-.354.82V107.3a1.135,1.135,0,0,0,1.132,1.132,3.725,3.725,0,0,1,2.574,1.372c1.344,1.641,1.641,4.611.849,8.586l2.221.438a22.164,22.164,0,0,0,.481-4.866c.665-.042,1.315-.057,1.966-.057.042,2.475-.339,8.855-5.036,10.425a1.125,1.125,0,0,0-.778,1.075V132.2h2.263v-6.012c2.758-1.231,4.611-3.876,5.4-7.695a20.792,20.792,0,0,0,.41-4.47,34.289,34.289,0,0,1,13.338,4.045.282.282,0,0,1,.156.255v1.429a1.135,1.135,0,0,0,1.132,1.132h6.789a1.135,1.135,0,0,0,1.132-1.132v-1.6a.334.334,0,0,1,.1-.226,19.919,19.919,0,0,1,11.075-4.173c-.057,2.928.4,10.029,5.785,12.433V132.2h2.263v-6.789a1.138,1.138,0,0,0-.778-1.075c-4.71-1.57-5.064-8.119-5.007-10.637.792.028,1.443.085,1.938.141a21.652,21.652,0,0,0,.467,4.993l2.221-.438c-.792-3.946-.509-6.9.82-8.558a3.773,3.773,0,0,1,2.6-1.414,1.135,1.135,0,0,0,1.132-1.132v-3.395a1.123,1.123,0,0,0-.354-.82l-5.969-5.587a7.8,7.8,0,0,1-1.414-6.365l13.409,11.061V132.2h2.263V101.645A1.244,1.244,0,0,0,72.364,101.136Zm-4.4-3.762-3.395-2.8V90.584ZM62.308,74.926V92.72l-1.132-.934V75.308Zm-50.921.382V91.73l-1.132.934V74.926ZM7.992,94.53,4.569,97.359,7.992,90.57Zm7.879,4.54A1.148,1.148,0,0,0,16,98.929a10.087,10.087,0,0,0,1.245-10.241,1.112,1.112,0,0,0-.778-.594,1.09,1.09,0,0,0-.948.24L13.65,89.863V72.2a55.687,55.687,0,0,1,12.179,1.132,40.972,40.972,0,0,1,10.453,4.088v34.768a42.733,42.733,0,0,0-9.915-3.706,58.41,58.41,0,0,0-12.716-1.188v-6.125ZM10.184,104.4l1.2-1.117v3.508a7.219,7.219,0,0,0-1.2-.453Zm30.454,11.754a2.541,2.541,0,0,0-.962,1.994v.467H35.15v-.311a2.532,2.532,0,0,0-1.33-2.235,35.639,35.639,0,0,0-18.912-4.342,8.424,8.424,0,0,0-.764-2.178,55.246,55.246,0,0,1,11.684,1.132,41,41,0,0,1,11.019,4.4,1.106,1.106,0,0,0,1.132,0,.254.254,0,0,0,.1-.071,29.809,29.809,0,0,1,13.084-5.446,29.077,29.077,0,0,1,7.27-.184,8.113,8.113,0,0,0-.82,2.221A22.809,22.809,0,0,0,40.638,116.158Zm21.67-9.816a5.859,5.859,0,0,0-1.132.41v-3.409l1.132,1.061Zm-6.28-18.247a1.15,1.15,0,0,0-.778.594,10.084,10.084,0,0,0,1.245,10.241,1.276,1.276,0,0,0,.127.141l2.291,2.15v5.927a30.98,30.98,0,0,0-8.091.17,31.848,31.848,0,0,0-12.278,4.639V77.33a29.15,29.15,0,0,1,20.368-5.248V89.919l-1.938-1.6A1.152,1.152,0,0,0,56.027,88.094Z" transform="translate(0 -59.777)" fill="#fff"/>
            <path id="Trazado_1263671" data-name="Trazado 1263671" d="M134.746,140.656l1.117-1.966a28.2,28.2,0,0,0-16.563-3.536l.325,2.235A26.463,26.463,0,0,1,134.746,140.656Z" transform="translate(-102.425 -115.916)" fill="#fff"/>
            <path id="Trazado_1263672" data-name="Trazado 1263672" d="M134.746,180.656l1.117-1.966a28.2,28.2,0,0,0-16.563-3.536l.325,2.235A26.463,26.463,0,0,1,134.746,180.656Z" transform="translate(-102.425 -150.259)" fill="#fff"/>
            <path id="Trazado_1263673" data-name="Trazado 1263673" d="M284.5,298.777l1.117,1.966a26.236,26.236,0,0,1,15.121-3.253l.325-2.235A27.88,27.88,0,0,0,284.5,298.777Z" transform="translate(-244.258 -253.359)" fill="#fff"/>
            <path id="Trazado_1263674" data-name="Trazado 1263674" d="M284.5,131.634l1.117,1.966a26.236,26.236,0,0,1,15.121-3.253l.325-2.235A28.132,28.132,0,0,0,284.5,131.634Z" transform="translate(-244.258 -109.865)" fill="#fff"/>
          </g>
        </g>
      </g>
    </g>
  </g>
</svg>
