<svg xmlns="http://www.w3.org/2000/svg" xmlns:xlink="http://www.w3.org/1999/xlink" width="155.641" height="177.126" viewBox="0 0 155.641 177.126">
  <defs>
    <clipPath id="clip-path">
      <rect id="Rectángulo_455482" data-name="Rectángulo 455482" width="108.371" height="147.251" fill="none"/>
    </clipPath>
    <clipPath id="clip-path-3">
      <rect id="Rectángulo_455479" data-name="Rectángulo 455479" width="103.808" height="133.52" fill="none"/>
    </clipPath>
  </defs>
  <g id="Grupo_1206554" data-name="Grupo 1206554" transform="translate(13387.32 12012.126)">
    <g id="Grupo_1204821" data-name="Grupo 1204821" transform="translate(-13332.159 -12012.126) rotate(22)">
      <g id="Grupo_1204529" data-name="Grupo 1204529" clip-path="url(#clip-path)">
        <g id="Grupo_1204528" data-name="Grupo 1204528">
          <g id="Grupo_1204527" data-name="Grupo 1204527" clip-path="url(#clip-path)">
            <g id="Grupo_1204526" data-name="Grupo 1204526" transform="translate(4.563 13.731)" opacity="0.21">
              <g id="Grupo_1204525" data-name="Grupo 1204525">
                <g id="Grupo_1204524" data-name="Grupo 1204524" clip-path="url(#clip-path-3)">
                  <path id="Trazado_1262681" data-name="Trazado 1262681" d="M11.257,165.881V35.389a1.514,1.514,0,0,1,1.514-1.514H113.551a1.514,1.514,0,0,1,1.514,1.514V165.881a1.514,1.514,0,0,1-1.514,1.514H12.771a1.514,1.514,0,0,1-1.514-1.514" transform="translate(-11.257 -33.875)" fill="#040506"/>
                </g>
              </g>
            </g>
            <path id="Trazado_1262682" data-name="Trazado 1262682" d="M0,156.831V26.339a1.514,1.514,0,0,1,1.514-1.514h100.78a1.514,1.514,0,0,1,1.514,1.514V156.831a1.514,1.514,0,0,1-1.514,1.514H1.514A1.514,1.514,0,0,1,0,156.831" transform="translate(0 -14.762)" fill="#123585"/>
            <path id="Trazado_1262683" data-name="Trazado 1262683" d="M106.93,41.316l3.675,122.841-94.114-2.69Z" transform="translate(-9.807 -24.569)" fill="#1a3042"/>
            <rect id="Rectángulo_455480" data-name="Rectángulo 455480" width="90.439" height="120.151" transform="translate(6.685 16.748)" fill="#fff"/>
            <path id="Trazado_1262684" data-name="Trazado 1262684" d="M102.7,7.538h-2.524c0-4.163-3.8-7.538-8.487-7.538S83.2,3.375,83.2,7.538H81.425c-7.676,0-13.9,5.356-13.9,11.964h49.065c0-6.608-6.221-11.964-13.9-11.964M91.687,9.879a3.668,3.668,0,1,1,3.668-3.668,3.667,3.667,0,0,1-3.668,3.668" transform="translate(-40.156)" fill="#e34139"/>
            <path id="Trazado_1262685" data-name="Trazado 1262685" d="M119.134,10.6a3.657,3.657,0,0,0,1.235,2.745A3.669,3.669,0,1,1,124.185,7.2a3.67,3.67,0,0,0-5.05,3.4" transform="translate(-70.217 -3.73)" fill="#9e2227"/>
            <path id="Trazado_1262686" data-name="Trazado 1262686" d="M67.526,45.647h49.065a10.417,10.417,0,0,0-.137-1.68H67.663a10.417,10.417,0,0,0-.137,1.68" transform="translate(-40.155 -26.145)" fill="#9e2227"/>
            <path id="Trazado_1262687" data-name="Trazado 1262687" d="M186.97,255.448H170.785a1.861,1.861,0,0,0-1.859,1.86v16.185a1.861,1.861,0,0,0,1.859,1.86H186.97a1.862,1.862,0,0,0,1.86-1.86V257.308a1.862,1.862,0,0,0-1.86-1.86m-1.328,17.978H172.114a1.262,1.262,0,0,1-1.261-1.261V258.636a1.262,1.262,0,0,1,1.261-1.261h13.528a1.262,1.262,0,0,1,1.261,1.261v13.529a1.261,1.261,0,0,1-1.261,1.261" transform="translate(-100.453 -151.903)" fill="#123585"/>
            <path id="Trazado_1262688" data-name="Trazado 1262688" d="M84.269,264.542H46.708a1.127,1.127,0,0,1-1.127-1.127v-.286A1.127,1.127,0,0,1,46.708,262h37.56A1.127,1.127,0,0,1,85.4,263.13v.286a1.127,1.127,0,0,1-1.127,1.127" transform="translate(-27.105 -155.801)" fill="#123585"/>
            <path id="Trazado_1262689" data-name="Trazado 1262689" d="M84.269,279.406H46.708a1.127,1.127,0,0,1-1.127-1.127v-.286a1.127,1.127,0,0,1,1.127-1.127h37.56a1.127,1.127,0,0,1,1.127,1.127v.286a1.127,1.127,0,0,1-1.127,1.127" transform="translate(-27.105 -164.64)" fill="#123585"/>
            <path id="Trazado_1262690" data-name="Trazado 1262690" d="M75.322,294.271H46.708a1.127,1.127,0,0,1-1.127-1.127v-.286a1.127,1.127,0,0,1,1.127-1.127H75.322a1.127,1.127,0,0,1,1.127,1.127v.286a1.127,1.127,0,0,1-1.127,1.127" transform="translate(-27.105 -173.48)" fill="#123585"/>
            <path id="Trazado_1262691" data-name="Trazado 1262691" d="M186.97,191.214H170.785a1.861,1.861,0,0,0-1.859,1.86v16.185a1.861,1.861,0,0,0,1.859,1.86H186.97a1.862,1.862,0,0,0,1.86-1.86V193.074a1.862,1.862,0,0,0-1.86-1.86m-1.328,17.978H172.114a1.262,1.262,0,0,1-1.261-1.261V194.4a1.262,1.262,0,0,1,1.261-1.261h13.528A1.262,1.262,0,0,1,186.9,194.4v13.529a1.261,1.261,0,0,1-1.261,1.261" transform="translate(-100.453 -113.706)" fill="#123585"/>
            <path id="Trazado_1262692" data-name="Trazado 1262692" d="M170.2,193.738l9.484,9.946,14.522-20.052-2.182.409L179.488,198.3l-7.252-4.766Z" transform="translate(-101.209 -109.198)" fill="#e34139"/>
            <path id="Trazado_1262693" data-name="Trazado 1262693" d="M84.269,200.308H46.708a1.127,1.127,0,0,1-1.127-1.127V198.9a1.127,1.127,0,0,1,1.127-1.127h37.56A1.127,1.127,0,0,1,85.4,198.9v.286a1.127,1.127,0,0,1-1.127,1.127" transform="translate(-27.105 -117.604)" fill="#123585"/>
            <path id="Trazado_1262694" data-name="Trazado 1262694" d="M84.269,215.173H46.708a1.127,1.127,0,0,1-1.127-1.127v-.286a1.127,1.127,0,0,1,1.127-1.127h37.56a1.127,1.127,0,0,1,1.127,1.127v.286a1.127,1.127,0,0,1-1.127,1.127" transform="translate(-27.105 -126.444)" fill="#123585"/>
            <path id="Trazado_1262695" data-name="Trazado 1262695" d="M75.322,230.038H46.708a1.127,1.127,0,0,1-1.127-1.127v-.286a1.127,1.127,0,0,1,1.127-1.127H75.322a1.127,1.127,0,0,1,1.127,1.127v.286a1.127,1.127,0,0,1-1.127,1.127" transform="translate(-27.105 -135.283)" fill="#123585"/>
            <path id="Trazado_1262696" data-name="Trazado 1262696" d="M186.97,126.981H170.785a1.861,1.861,0,0,0-1.859,1.86v16.185a1.861,1.861,0,0,0,1.859,1.86H186.97a1.862,1.862,0,0,0,1.86-1.86V128.841a1.862,1.862,0,0,0-1.86-1.86m-1.328,17.978H172.114a1.262,1.262,0,0,1-1.261-1.261V130.169a1.262,1.262,0,0,1,1.261-1.261h13.528a1.262,1.262,0,0,1,1.261,1.261V143.7a1.261,1.261,0,0,1-1.261,1.261" transform="translate(-100.453 -75.51)" fill="#123585"/>
            <path id="Trazado_1262697" data-name="Trazado 1262697" d="M84.269,136.075H46.708a1.127,1.127,0,0,1-1.127-1.127v-.286a1.127,1.127,0,0,1,1.127-1.127h37.56a1.127,1.127,0,0,1,1.127,1.127v.286a1.127,1.127,0,0,1-1.127,1.127" transform="translate(-27.105 -79.408)" fill="#123585"/>
            <path id="Trazado_1262698" data-name="Trazado 1262698" d="M84.269,150.94H46.708a1.127,1.127,0,0,1-1.127-1.127v-.286a1.127,1.127,0,0,1,1.127-1.127h37.56a1.127,1.127,0,0,1,1.127,1.127v.286a1.127,1.127,0,0,1-1.127,1.127" transform="translate(-27.105 -88.247)" fill="#123585"/>
            <path id="Trazado_1262699" data-name="Trazado 1262699" d="M75.322,165.805H46.708a1.127,1.127,0,0,1-1.127-1.127v-.286a1.127,1.127,0,0,1,1.127-1.127H75.322a1.127,1.127,0,0,1,1.127,1.127v.286a1.127,1.127,0,0,1-1.127,1.127" transform="translate(-27.105 -97.087)" fill="#123585"/>
            <path id="Trazado_1262700" data-name="Trazado 1262700" d="M119.045,77.619H81.484a1.127,1.127,0,0,1-1.127-1.127v-.286a1.127,1.127,0,0,1,1.127-1.127h37.56a1.127,1.127,0,0,1,1.127,1.127v.286a1.127,1.127,0,0,1-1.127,1.127" transform="translate(-47.785 -44.647)" fill="#123585"/>
            <path id="Trazado_1262701" data-name="Trazado 1262701" d="M121.133,92.484H92.519a1.127,1.127,0,0,1-1.127-1.127v-.286a1.127,1.127,0,0,1,1.127-1.127h28.614a1.127,1.127,0,0,1,1.127,1.127v.286a1.127,1.127,0,0,1-1.127,1.127" transform="translate(-54.347 -53.486)" fill="#123585"/>
          </g>
        </g>
      </g>
    </g>
  </g>
</svg>
